<?xml version="1.0" encoding="utf-8"?>
<svg width="910.69995px" height="409.3999px" viewBox="0 0 910.69995 409.3999" version="1.1" xmlns:xlink="http://www.w3.org/1999/xlink" xmlns="http://www.w3.org/2000/svg">
  <defs>
    <rect width="910.69995" height="409.3999" id="artboard_1" />
    <clipPath id="clip_1">
      <use xlink:href="#artboard_1" clip-rule="evenodd" />
    </clipPath>
  </defs>
  <g id="pieces" clip-path="url(#clip_1)">
    <use xlink:href="#artboard_1" stroke="none" fill="#FFFFFF" />
    <path d="M0 204.4L910.7 204.4L910.7 409.4L0 409.4L0 204.4Z" id="Rectangle" fill="#D9D9D9" fill-rule="evenodd" stroke="none" />
    <path d="M0 0L910.7 0L910.7 205L0 205L0 0Z" id="Rectangle-Copy" fill="#2F2F2F" fill-rule="evenodd" stroke="none" />
    <g id="Shape" transform="translate(0 212.82544)">
      <path d="M76.3346 3.21526C83.7602 -1.07175 92.909 -1.07175 100.335 3.21526L164.669 40.3593C172.095 44.6463 176.669 52.5693 176.669 61.1443L176.669 135.431C176.669 144.005 172.095 151.928 164.669 156.215L100.335 193.359C92.909 197.646 83.7602 197.646 76.3346 193.359L12 156.215C4.57438 151.928 0 144.005 0 135.431L0 61.1443C0 52.5693 4.57437 44.6463 12 40.3593L76.3346 3.21526L76.3346 3.21526Z" id="whiteant" fill="#D9D9D9" fill-rule="evenodd" stroke="none" />
      <path d="M148.02 83.2361C142.494 81.6701 135.863 82.6381 130.981 83.0061C126.1 83.3741 129.646 82.8681 127.344 82.2241C125.042 81.5781 119.47 84.2971 118.318 84.8481C117.168 85.4011 117.536 85.7221 115.74 84.8941C113.944 84.0661 109.43 84.7101 104.872 85.4011C100.313 86.0931 100.637 85.2621 101.005 85.2161C101.373 85.1701 101.557 84.0201 101.097 82.3621C100.636 80.7041 100.543 80.1511 100.543 78.9081C100.543 77.6641 100.589 77.2501 100.959 77.3881C101.327 77.5261 105.241 75.4071 105.241 75.4071C111.412 70.6631 110.352 70.5711 110.582 69.8821C110.812 69.1901 110.997 69.4201 113.99 69.0991C116.984 68.7761 118.457 66.8431 120.437 65.5981C122.418 64.3561 123.338 64.6791 124.213 64.7251C125.087 64.7711 127.667 65.0471 128.956 64.7711C130.245 64.4941 131.028 63.3431 133.654 62.4671C136.278 61.5941 133.791 61.6861 130.43 61.6861C127.068 61.6861 124.443 63.0211 120.668 63.1601C116.892 63.2981 116.43 64.2631 115.234 64.9101C114.037 65.5541 111.135 67.5801 110.031 67.6261C108.925 67.6721 107.958 67.5801 107.405 68.2261C106.853 68.8701 100.268 73.6131 99.8532 74.2121C99.439 74.8121 97.6441 67.2121 96.3073 64.7731C94.9715 62.3321 91.8397 61.4111 91.4255 61.4571C91.0102 61.5031 91.2874 60.9031 91.2874 60.9031C91.2874 60.9031 93.3135 62.0541 96.03 60.2121C98.7476 58.3701 98.7476 55.8831 98.7476 54.7781C98.7476 53.6741 98.5635 52.9361 98.5635 52.9361C99.0237 52.7521 99.6681 52.3831 99.6681 51.4631C99.6681 50.5421 99.1147 49.4361 98.7476 49.0681C98.3783 48.7001 98.3783 47.6861 98.3783 47.1341C98.3783 46.5821 99.6681 47.7781 101.234 48.9761C102.8 50.1741 104.272 52.5671 105.47 51.8321C106.667 51.0951 113.575 39.8581 114.128 39.2141C114.68 38.5681 116.706 38.0161 115.786 37.4641C114.864 36.9111 114.128 37.8321 114.128 37.8321C111.364 40.1341 107.404 47.5941 106.483 48.7921C105.561 49.9901 105.101 50.3581 104.641 50.1741C104.179 49.9901 98.7465 45.2921 96.5363 43.1741C94.4673 41.1921 89.0654 40.5101 88.3783 40.4311L88.3783 40.4221C88.3783 40.4221 88.3633 40.4231 88.3419 40.4261C88.3194 40.4241 88.3055 40.4221 88.3055 40.4221L88.3055 40.4311C87.6173 40.5101 82.2153 41.1921 80.1475 43.1741C77.9372 45.2921 72.5021 49.9901 72.043 50.1741C71.5817 50.3581 71.1225 49.9901 70.1999 48.7921C69.2794 47.5941 65.3181 40.1351 62.5556 37.8321C62.5556 37.8321 61.8192 36.9111 60.8977 37.4641C59.9772 38.0161 62.0033 38.5681 62.5556 39.2141C63.109 39.8591 70.0168 51.0951 71.2135 51.8321C72.4101 52.5681 73.8839 50.1741 75.4498 48.9761C77.0157 47.7781 78.3044 46.5821 78.3044 47.1341C78.3044 47.6861 78.3044 48.7001 77.9362 49.0681C77.568 49.4371 77.0157 50.5421 77.0157 51.4631C77.0157 52.3831 77.6611 52.7521 78.1213 52.9361C78.1213 52.9361 77.9362 53.6731 77.9362 54.7781C77.9362 55.8841 77.9362 58.3701 80.6526 60.2121C83.3702 62.0541 85.3963 60.9031 85.3963 60.9031C85.3963 60.9031 85.6735 61.5031 85.2583 61.4571C84.844 61.4111 81.7123 62.3301 80.3765 64.7731C79.0408 67.2121 77.2447 74.8121 76.8305 74.2121C76.4152 73.6131 69.8306 68.8701 69.2772 68.2261C68.725 67.5801 67.7585 67.6721 66.6528 67.6261C65.5482 67.5801 62.6466 65.5531 61.45 64.9101C60.2523 64.2631 59.791 63.2981 56.016 63.1601C52.2409 63.0211 49.6154 61.6861 46.2535 61.6861C42.8916 61.6861 40.4053 61.5941 43.0297 62.4671C45.6552 63.3431 46.4387 64.4951 47.7274 64.7711C49.0171 65.0471 51.5944 64.7711 52.471 64.7251C53.3455 64.6791 54.267 64.3561 56.2461 65.5981C58.2272 66.8421 59.7 68.7761 62.6937 69.0991C65.6863 69.4211 65.8704 69.1911 66.1016 69.8821C66.3317 70.5721 65.2721 70.6631 71.4425 75.4071C71.4425 75.4071 75.3567 77.5251 75.7249 77.3881C76.0931 77.2511 76.1391 77.6651 76.1391 78.9081C76.1391 80.1501 76.0481 80.7041 75.5868 82.3621C75.1266 84.0201 75.3107 85.1701 75.6788 85.2161C76.047 85.2621 76.3702 86.0921 71.8107 85.4011C67.2522 84.7101 62.7386 84.0661 60.9437 84.8941C59.1487 85.7221 59.5159 85.4011 58.3653 84.8481C57.2136 84.2961 51.6426 81.5781 49.3392 82.2241C47.0359 82.8691 50.5829 83.3741 45.7023 83.0061C40.8216 82.6381 34.1888 81.6701 28.6638 83.2361C28.6638 83.2361 27.5581 83.9731 29.4001 83.6961C31.2422 83.4201 37.6887 83.3741 40.2672 83.6041C42.8456 83.8341 48.1415 84.0201 48.2796 84.5721C48.4177 85.1241 54.0807 86.8271 58.6403 86.9191C58.6403 86.9191 59.4698 86.5971 60.5284 87.4261C61.588 88.2551 61.588 88.2091 66.884 88.2551C72.1799 88.3011 74.4822 87.8871 75.5878 87.7491C76.6924 87.6101 77.9361 87.5641 77.9361 87.7951C77.9361 88.0251 79.0418 95.1161 81.1599 96.8201C81.1599 96.8201 81.5281 96.9592 80.9748 97.6031C80.4225 98.2471 79.5941 99.4451 79.8242 100.689C79.8242 100.689 80.5606 100.459 77.9821 102.485C75.4037 104.511 68.4509 110.036 65.7794 116.252C65.7794 116.252 65.5033 116.576 64.8589 116.899C64.2135 117.221 63.6163 117.864 63.7083 119.845C63.8003 121.827 63.5702 121.042 62.7418 121.919C61.9134 122.792 55.926 133.523 56.1112 134.259C56.2953 134.996 56.8475 134.583 55.88 136.332C54.9135 138.083 46.0255 150.654 44.5977 152.956C43.1709 155.257 40.6386 158.712 41.2358 159.034C41.8352 159.356 45.7494 153.232 46.6238 152.034C47.4983 150.838 57.0316 136.47 57.5829 136.008C58.1362 135.548 58.9646 136.008 59.3328 135.594C59.7021 135.18 65.3202 122.7 65.3662 121.873C65.4122 121.043 65.6884 120.721 65.9196 120.583C66.1486 120.445 67.8997 120.168 67.9457 118.925C67.9917 117.681 68.9122 116.853 70.3861 115.104C71.8588 113.353 76.1883 108.657 78.1234 105.618C80.0575 102.578 80.2866 103.868 80.978 103.36C81.6694 102.854 81.6694 101.426 82.3598 101.472C83.0501 101.519 83.7865 101.426 83.1411 103.038C82.4968 104.65 83.049 105.019 83.6945 105.894C84.3399 106.769 84.3859 107.414 83.6485 107.598C82.9121 107.782 80.4707 109.9 82.3127 112.111C82.3127 112.111 82.82 112.387 81.5763 113.031C80.3326 113.677 74.3002 117.176 72.4111 121.644C70.5231 126.11 70.4771 131.496 70.5691 134.352C70.6612 137.207 71.4896 143.746 75.1747 147.523C78.8502 151.289 81.6298 154.26 88.3194 154.275C88.3301 154.275 88.3344 154.275 88.3419 154.275C88.3526 154.275 88.3568 154.275 88.3643 154.275C95.0539 154.26 97.8346 151.289 101.509 147.523C105.192 143.747 106.022 137.207 106.115 134.352C106.207 131.496 106.161 126.11 104.271 121.644C102.383 117.176 96.3522 113.677 95.1074 113.031C93.8647 112.386 94.371 112.111 94.371 112.111C96.213 109.901 93.7716 107.782 93.0363 107.598C92.2999 107.414 92.3449 106.77 92.9892 105.894C93.6346 105.019 94.1869 104.65 93.5426 103.038C92.8982 101.426 93.6347 101.519 94.325 101.472C95.0164 101.426 95.0164 102.854 95.7068 103.36C96.3982 103.869 96.6272 102.579 98.5624 105.618C100.496 108.657 104.825 113.354 106.299 115.104C107.772 116.854 108.692 117.681 108.739 118.925C108.785 120.168 110.535 120.445 110.765 120.583C110.996 120.721 111.272 121.043 111.318 121.873C111.364 122.7 116.983 135.181 117.351 135.594C117.72 136.008 118.548 135.548 119.102 136.008C119.654 136.47 129.186 150.837 130.061 152.034C130.935 153.232 134.851 159.356 135.448 159.034C136.047 158.712 133.514 155.258 132.087 152.956C130.659 150.654 121.771 138.083 120.804 136.332C119.837 134.583 120.389 134.997 120.574 134.259C120.759 133.523 114.771 122.792 113.943 121.919C113.114 121.043 112.884 121.827 112.976 119.845C113.068 117.864 112.469 117.221 111.826 116.899C111.18 116.576 110.904 116.252 110.904 116.252C108.234 110.035 101.281 104.51 98.7015 102.485C96.1231 100.459 96.8606 100.689 96.8606 100.689C97.0907 99.4451 96.2612 98.2471 95.7089 97.6031C95.1556 96.9581 95.5248 96.8201 95.5248 96.8201C97.643 95.1161 98.7486 88.0251 98.7486 87.7951C98.7486 87.5641 99.9913 87.6101 101.097 87.7491C102.201 87.8871 104.505 88.3011 109.8 88.2551C115.096 88.2091 115.096 88.2551 116.155 87.4261C117.215 86.5981 118.043 86.9191 118.043 86.9191C122.603 86.8271 128.267 85.1231 128.405 84.5721C128.543 84.0181 133.839 83.8341 136.418 83.6041C138.996 83.3741 145.444 83.4201 147.285 83.6961C149.124 83.9731 148.02 83.2361 148.02 83.2361L148.02 83.2361Z" id="Shape" fill="#1E90FF" fill-rule="evenodd" stroke="none" />
    </g>
    <g id="Shape" transform="translate(0.016601562 0.044433594)">
      <path d="M76.335 3.21539C83.76 -1.0718 92.909 -1.0718 100.335 3.21539L164.669 40.359C172.095 44.6462 176.669 52.5692 176.669 61.1436L176.669 135.431C176.669 144.005 172.095 151.928 164.669 156.215L100.335 193.359C92.909 197.646 83.76 197.646 76.335 193.359L12 156.215C4.5744 151.928 0 144.005 0 135.431L0 61.1436C0 52.5692 4.5744 44.6462 12 40.359L76.335 3.21539L76.335 3.21539Z" id="blackant" fill="#2F2F2F" fill-rule="evenodd" stroke="none" />
      <path d="M148.02 83.236C142.494 81.6701 135.863 82.6377 130.981 83.0059C126.1 83.3741 129.646 82.8678 127.344 82.2235C125.042 81.5781 119.47 84.2967 118.318 84.8479C117.168 85.4013 117.536 85.7224 115.74 84.8939C113.944 84.0655 109.43 84.7098 104.872 85.4013C100.313 86.0927 100.637 85.2621 101.005 85.2161C101.373 85.1701 101.557 84.0195 101.097 82.3615C100.636 80.7036 100.543 80.1513 100.543 78.9076C100.543 77.6639 100.589 77.2497 100.959 77.3877C101.327 77.5258 105.241 75.4066 105.241 75.4066C111.412 70.6629 110.352 70.5708 110.582 69.8816C110.812 69.1901 110.997 69.4203 113.99 69.0992C116.984 68.7759 118.457 66.8429 120.437 65.5981C122.418 64.3555 123.338 64.6787 124.213 64.7247C125.087 64.7707 127.667 65.0469 128.956 64.7707C130.245 64.4935 131.028 63.3429 133.654 62.4674C136.278 61.594 133.791 61.686 130.43 61.686C127.068 61.686 124.443 63.0207 120.668 63.1599C116.892 63.298 116.43 64.2634 115.234 64.9099C114.037 65.5542 111.135 67.5803 110.031 67.6263C108.925 67.6723 107.958 67.5804 107.405 68.2257C106.853 68.8701 100.268 73.6127 99.853 74.2121C99.439 74.8114 97.644 67.2121 96.307 64.7729C94.971 62.3315 91.84 61.411 91.425 61.457C91.01 61.503 91.287 60.9026 91.287 60.9026C91.287 60.9026 93.313 62.0542 96.03 60.2122C98.747 58.3702 98.747 55.8828 98.747 54.7782C98.747 53.6736 98.563 52.9362 98.563 52.9362C99.024 52.7521 99.668 52.3828 99.668 51.4634C99.668 50.5418 99.115 49.4362 98.747 49.068C98.378 48.6998 98.378 47.6862 98.378 47.1339C98.378 46.5816 99.668 47.7783 101.234 48.976C102.8 50.1736 104.272 52.5669 105.47 51.8316C106.667 51.0952 113.575 39.8579 114.128 39.2135C114.68 38.5681 116.706 38.0158 115.786 37.4636C114.864 36.9113 114.128 37.8317 114.128 37.8317C111.364 40.134 107.404 47.5942 106.483 48.7919C105.561 49.9896 105.101 50.3578 104.641 50.1737C104.179 49.9896 98.746 45.2919 96.536 43.1737C94.467 41.1915 89.065 40.5097 88.378 40.4305L88.378 40.4219C88.378 40.4219 88.363 40.423 88.342 40.4262C88.319 40.4241 88.305 40.4219 88.305 40.4219L88.305 40.4305C87.617 40.5097 82.215 41.1915 80.147 43.1737C77.937 45.2919 72.502 49.9896 72.043 50.1737C71.582 50.3578 71.122 49.9896 70.2 48.7919C69.279 47.5942 65.318 40.1351 62.556 37.8317C62.556 37.8317 61.819 36.9113 60.898 37.4636C59.977 38.0158 62.003 38.5681 62.556 39.2135C63.109 39.8589 70.017 51.0952 71.213 51.8316C72.41 52.568 73.884 50.1736 75.45 48.976C77.016 47.7783 78.304 46.5816 78.304 47.1339C78.304 47.6862 78.304 48.6998 77.936 49.068C77.568 49.4373 77.016 50.5418 77.016 51.4634C77.016 52.3828 77.661 52.7521 78.121 52.9362C78.121 52.9362 77.936 53.6725 77.936 54.7782C77.936 55.8838 77.936 58.3702 80.653 60.2122C83.37 62.0542 85.396 60.9026 85.396 60.9026C85.396 60.9026 85.673 61.503 85.258 61.457C84.844 61.411 81.712 62.3304 80.376 64.7729C79.041 67.2121 77.245 74.8114 76.83 74.2121C76.415 73.6127 69.831 68.8701 69.277 68.2257C68.725 67.5803 67.758 67.6724 66.653 67.6263C65.548 67.5803 62.646 65.5531 61.45 64.9099C60.252 64.2634 59.791 63.298 56.016 63.1599C52.241 63.0207 49.615 61.686 46.253 61.686C42.892 61.686 40.405 61.5941 43.03 62.4674C45.655 63.3429 46.439 64.4946 47.727 64.7707C49.017 65.0469 51.594 64.7707 52.471 64.7247C53.345 64.6787 54.267 64.3555 56.246 65.5981C58.227 66.8418 59.7 68.7759 62.694 69.0992C65.686 69.4213 65.87 69.1913 66.102 69.8816C66.332 70.5719 65.272 70.6629 71.442 75.4066C71.442 75.4066 75.357 77.5247 75.725 77.3877C76.093 77.2507 76.139 77.6649 76.139 78.9076C76.139 80.1502 76.048 80.7036 75.587 82.3615C75.126 84.0195 75.311 85.1701 75.679 85.2161C76.047 85.2621 76.37 86.0916 71.811 85.4013C67.252 84.7098 62.738 84.0655 60.944 84.8939C59.149 85.7224 59.516 85.4013 58.365 84.8479C57.213 84.2956 51.642 81.5781 49.339 82.2235C47.036 82.8689 50.583 83.3741 45.702 83.0059C40.821 82.6377 34.189 81.6701 28.664 83.236C28.664 83.236 27.558 83.9724 29.4 83.6963C31.242 83.4201 37.689 83.3741 40.267 83.6042C42.845 83.8343 48.141 84.0194 48.28 84.5717C48.418 85.124 54.081 86.8269 58.64 86.919C58.64 86.919 59.47 86.5968 60.528 87.4263C61.588 88.2547 61.588 88.2087 66.884 88.2547C72.18 88.3007 74.482 87.8865 75.588 87.7485C76.692 87.6104 77.936 87.5644 77.936 87.7944C77.936 88.0246 79.042 95.1155 81.16 96.8194C81.16 96.8194 81.528 96.9586 80.975 97.6029C80.422 98.2472 79.594 99.4449 79.824 100.689C79.824 100.689 80.56 100.459 77.982 102.485C75.404 104.511 68.451 110.036 65.779 116.252C65.779 116.252 65.503 116.576 64.859 116.899C64.213 117.221 63.616 117.864 63.708 119.845C63.8 121.827 63.57 121.042 62.742 121.919C61.913 122.792 55.926 133.523 56.111 134.259C56.295 134.996 56.847 134.583 55.88 136.332C54.913 138.083 46.025 150.654 44.598 152.956C43.171 155.257 40.638 158.712 41.236 159.034C41.835 159.356 45.749 153.232 46.624 152.034C47.498 150.838 57.032 136.47 57.583 136.008C58.136 135.548 58.965 136.008 59.333 135.594C59.702 135.18 65.32 122.7 65.366 121.873C65.412 121.043 65.688 120.721 65.92 120.583C66.149 120.445 67.9 120.168 67.946 118.925C67.992 117.681 68.912 116.853 70.386 115.104C71.859 113.353 76.188 108.657 78.123 105.618C80.057 102.578 80.286 103.868 80.978 103.36C81.669 102.854 81.669 101.426 82.36 101.472C83.05 101.519 83.786 101.426 83.141 103.038C82.497 104.65 83.049 105.019 83.694 105.894C84.34 106.769 84.386 107.414 83.648 107.598C82.912 107.782 80.471 109.9 82.313 112.111C82.313 112.111 82.82 112.387 81.576 113.031C80.333 113.677 74.3 117.176 72.411 121.644C70.523 126.11 70.477 131.496 70.569 134.352C70.661 137.207 71.489 143.746 75.175 147.523C78.85 151.289 81.63 154.26 88.319 154.275C88.33 154.275 88.334 154.275 88.342 154.275C88.352 154.275 88.357 154.275 88.364 154.275C95.054 154.26 97.834 151.289 101.509 147.523C105.192 143.747 106.022 137.207 106.115 134.352C106.207 131.496 106.161 126.11 104.271 121.644C102.383 117.176 96.352 113.677 95.107 113.031C93.865 112.386 94.371 112.111 94.371 112.111C96.213 109.901 93.772 107.782 93.036 107.598C92.3 107.414 92.345 106.77 92.989 105.894C93.635 105.019 94.187 104.65 93.542 103.038C92.898 101.426 93.635 101.519 94.325 101.472C95.016 101.426 95.016 102.854 95.707 103.36C96.398 103.869 96.627 102.579 98.562 105.618C100.496 108.657 104.825 113.354 106.299 115.104C107.772 116.854 108.692 117.681 108.739 118.925C108.785 120.168 110.535 120.445 110.765 120.583C110.996 120.721 111.272 121.043 111.318 121.873C111.364 122.7 116.983 135.181 117.351 135.594C117.72 136.008 118.548 135.548 119.102 136.008C119.654 136.47 129.186 150.837 130.061 152.034C130.935 153.232 134.851 159.356 135.448 159.034C136.047 158.712 133.514 155.258 132.087 152.956C130.659 150.654 121.771 138.083 120.804 136.332C119.837 134.583 120.389 134.997 120.574 134.259C120.759 133.523 114.771 122.792 113.943 121.919C113.114 121.043 112.884 121.827 112.976 119.845C113.068 117.864 112.469 117.221 111.826 116.899C111.18 116.576 110.904 116.252 110.904 116.252C108.234 110.035 101.281 104.51 98.701 102.485C96.123 100.459 96.86 100.689 96.86 100.689C97.091 99.4449 96.261 98.2472 95.709 97.6029C95.155 96.9575 95.525 96.8194 95.525 96.8194C97.643 95.1155 98.749 88.0246 98.749 87.7944C98.749 87.5643 99.991 87.6104 101.097 87.7485C102.201 87.8865 104.505 88.3007 109.8 88.2547C115.096 88.2087 115.096 88.2547 116.155 87.4263C117.215 86.5979 118.043 86.919 118.043 86.919C122.603 86.8269 128.267 85.123 128.405 84.5717C128.543 84.0184 133.839 83.8343 136.418 83.6042C138.996 83.374 145.444 83.4201 147.285 83.6963C149.124 83.9724 148.02 83.236 148.02 83.236L148.02 83.236Z" id="Shape" fill="#1E90FF" fill-rule="evenodd" stroke="none" />
    </g>
    <g id="Shape" transform="translate(183.66602 212.82544)">
      <path d="M76.335 3.21526C83.76 -1.07175 92.909 -1.07175 100.335 3.21526L164.669 40.3593C172.095 44.6463 176.669 52.5693 176.669 61.1443L176.669 135.431C176.669 144.005 172.095 151.928 164.669 156.215L100.335 193.359C92.909 197.646 83.76 197.646 76.335 193.359L12 156.215C4.57401 151.928 0 144.005 0 135.431L0 61.1443C0 52.5693 4.57401 44.6463 12 40.3593L76.335 3.21526L76.335 3.21526Z" id="whitebeetle" fill="#D9D9D9" fill-rule="evenodd" stroke="none" />
      <path d="M62.139 159.503C65.485 150.783 65.634 149.408 64.428 138.407C63.609 130.94 65.472 124.62 69.648 120.696C72.69 117.838 73.364 110.447 70.582 110.447C66.323 110.447 64.999 112.39 64.999 118.641C64.999 121.978 64.543 124.99 63.986 125.335C63.428 125.68 61.996 129.174 60.803 133.101C58.763 139.817 57.629 141.416 56.36 139.364C56.062 138.882 56.953 134.837 58.339 130.375C59.93 125.252 60.865 119.752 60.874 115.453C60.892 107.859 61.356 107.174 67.772 105.27C70.858 104.353 72.174 103.373 72.395 101.825C72.589 100.466 73.587 99.5354 75.075 99.3244C78.696 98.8114 77.194 96.7344 72.117 95.2344C69.615 94.4943 66.874 93.5434 66.026 93.1203C63.979 92.0983 60.251 84.4673 58.683 78.0863C57.756 74.3163 56.104 71.5733 52.477 67.7803C44.656 59.6013 46.103 57.5984 54.469 65.0224C60.334 70.2274 61.418 71.7094 61.499 74.6313C61.551 76.5314 62.66 80.3194 63.963 83.0493C66.367 88.0883 68.969 89.9003 73.798 89.9003C75.88 89.9003 76.3 89.3954 76.3 86.8873C76.3 84.7953 75.683 83.6794 74.281 83.2343C72.011 82.5134 71.111 78.8714 71.233 70.8943C71.276 68.0694 70.999 62.2274 70.617 57.9113C69.637 46.8374 71.851 39.5193 77.956 33.6534C80.455 31.2523 83.257 29.2874 84.182 29.2874C85.69 29.2874 85.675 29.4964 84.035 31.3083C82.32 33.2034 82.299 34.6803 83.932 38.6194C84.484 39.9503 84.021 40.1593 81.38 39.7713C78.657 39.3723 78.211 39.5984 78.523 41.2193C78.727 42.2764 80.27 43.8013 81.953 44.6073C83.636 45.4144 84.555 46.1864 83.995 46.3233C83.435 46.4604 81.752 46.8414 80.255 47.1703C75.069 48.3074 74.504 55.5264 79.005 63.1454C80.945 66.4294 81.925 66.9474 82.978 65.2444C83.327 64.6794 85.638 64.2173 88.114 64.2173C90.59 64.2173 92.902 64.6794 93.251 65.2444C94.303 66.9474 95.283 66.4294 97.223 63.1454C101.724 55.5264 101.159 48.3074 95.973 47.1703C94.476 46.8414 92.793 46.4604 92.233 46.3233C91.674 46.1864 92.593 45.4144 94.275 44.6073C95.958 43.8013 97.502 42.2764 97.705 41.2193C98.017 39.5984 97.572 39.3723 94.848 39.7713C92.208 40.1593 91.744 39.9503 92.296 38.6194C93.929 34.6803 93.908 33.2034 92.193 31.3083C90.553 29.4964 90.538 29.2874 92.046 29.2874C92.972 29.2874 95.773 31.2523 98.273 33.6534C104.377 39.5193 106.591 46.8374 105.611 57.9113C105.23 62.2274 104.953 68.0694 104.996 70.8943C105.117 78.8714 104.218 82.5134 101.948 83.2343C100.545 83.6794 99.929 84.7953 99.929 86.8873C99.929 89.3954 100.348 89.9003 102.43 89.9003C107.26 89.9003 109.861 88.0883 112.266 83.0493C113.568 80.3194 114.677 76.5314 114.73 74.6313C114.81 71.7094 115.895 70.2274 121.76 65.0224C130.126 57.5984 131.572 59.6013 123.751 67.7803C120.124 71.5733 118.472 74.3163 117.546 78.0863C115.977 84.4673 112.25 92.0983 110.202 93.1203C109.354 93.5434 106.614 94.4943 104.112 95.2344C99.034 96.7344 97.532 98.8114 101.154 99.3244C102.642 99.5354 103.639 100.466 103.833 101.825C104.054 103.373 105.37 104.353 108.456 105.27C114.873 107.174 115.337 107.859 115.354 115.453C115.365 119.752 116.298 125.252 117.89 130.375C119.276 134.837 120.166 138.882 119.868 139.364C118.6 141.416 117.465 139.817 115.425 133.101C114.232 129.174 112.8 125.68 112.243 125.335C111.686 124.99 111.229 121.978 111.229 118.641C111.229 112.39 109.906 110.447 105.647 110.447C102.865 110.447 103.539 117.838 106.58 120.696C110.757 124.62 112.62 130.94 111.801 138.407C110.594 149.408 110.743 150.783 114.089 159.503C116.697 166.297 117.035 167.978 115.794 167.978C114.943 167.978 113.963 167.169 113.616 166.18C113.269 165.192 111.404 160.915 109.471 156.677C105.96 148.976 105.959 148.968 107.162 141.267C108.036 135.678 108.062 132.787 107.255 130.737C105.669 126.705 103.377 127.18 102.525 131.717C101.426 137.577 97.603 142.501 94.494 145.413C90.906 148.773 90.695 151.61 89.513 141.808L88.023 129.453L86.727 141.808C85.704 151.559 85.334 148.773 81.735 145.413C78.62 142.506 74.802 137.577 73.703 131.717C72.852 127.18 70.56 126.705 68.973 130.737C68.167 132.787 68.192 135.678 69.066 141.267C70.27 148.968 70.269 148.976 66.757 156.677C64.825 160.915 62.96 165.192 62.613 166.18C62.266 167.169 61.285 167.978 60.434 167.978C59.194 167.978 59.532 166.297 62.139 159.503L62.139 159.503ZM95.819 90.4624L95.819 86.3053L80.409 86.3053L80.409 90.3714C80.409 93.6744 81.123 95.1684 84.216 98.3353L88.023 102.233L91.921 98.4274C95.165 95.2594 95.819 93.9223 95.819 90.4624L95.819 90.4624Z" id="Shape" fill="#6A5ACD" fill-rule="evenodd" stroke="none" />
    </g>
    <g id="Shape" transform="translate(183.68262 0.044433594)">
      <path d="M76.335 3.21539C83.76 -1.0718 92.909 -1.0718 100.335 3.21539L164.669 40.359C172.095 44.6462 176.669 52.5692 176.669 61.1436L176.669 135.431C176.669 144.005 172.095 151.928 164.669 156.215L100.335 193.359C92.909 197.646 83.76 197.646 76.335 193.359L12 156.215C4.57401 151.928 0 144.005 0 135.431L0 61.1436C0 52.5692 4.57401 44.6462 12 40.359L76.335 3.21539L76.335 3.21539Z" id="blackbeetle" fill="#2F2F2F" fill-rule="evenodd" stroke="none" />
      <path d="M62.139 159.503C65.485 150.783 65.634 149.408 64.428 138.407C63.609 130.94 65.472 124.62 69.648 120.696C72.69 117.838 73.364 110.447 70.582 110.447C66.323 110.447 64.999 112.39 64.999 118.641C64.999 121.978 64.543 124.99 63.986 125.335C63.428 125.68 61.996 129.174 60.803 133.101C58.763 139.817 57.629 141.416 56.36 139.364C56.062 138.882 56.953 134.837 58.339 130.375C59.93 125.252 60.865 119.752 60.874 115.453C60.892 107.859 61.356 107.174 67.772 105.27C70.858 104.353 72.174 103.373 72.395 101.825C72.589 100.466 73.587 99.5348 75.075 99.3239C78.696 98.8105 77.194 96.7339 72.117 95.2335C69.615 94.4941 66.874 93.543 66.026 93.1199C63.979 92.0978 60.251 84.467 58.683 78.0858C57.756 74.3164 56.104 71.5731 52.477 67.7801C44.656 59.6009 46.103 57.5978 54.469 65.0221C60.334 70.2265 61.418 71.7087 61.499 74.6308C61.551 76.531 62.66 80.3192 63.963 83.049C66.367 88.0883 68.969 89.9002 73.798 89.9002C75.88 89.9002 76.3 89.3946 76.3 86.8874C76.3 84.7946 75.683 83.6789 74.281 83.2338C72.011 82.5133 71.111 78.871 71.233 70.8944C71.276 68.0692 70.999 62.2268 70.617 57.9112C69.637 46.8364 71.851 39.5187 77.956 33.6533C80.455 31.2519 83.257 29.2871 84.182 29.2871C85.69 29.2871 85.675 29.496 84.035 31.308C82.32 33.2033 82.299 34.6799 83.932 38.6185C84.484 39.9496 84.021 40.1589 81.38 39.7713C78.657 39.3716 78.211 39.5975 78.523 41.2191C78.727 42.2759 80.27 43.8004 81.953 44.607C83.636 45.4136 84.555 46.1857 83.995 46.3228C83.435 46.46 81.752 46.841 80.255 47.1695C75.069 48.3073 74.504 55.5254 79.005 63.1445C80.945 66.4291 81.925 66.9469 82.978 65.244C83.327 64.679 85.638 64.2167 88.114 64.2167C90.59 64.2167 92.902 64.679 93.251 65.244C94.303 66.9469 95.283 66.4291 97.223 63.1445C101.724 55.5254 101.159 48.3073 95.973 47.1695C94.476 46.841 92.793 46.46 92.233 46.3228C91.674 46.1857 92.593 45.4136 94.275 44.607C95.958 43.8004 97.502 42.2759 97.705 41.2191C98.017 39.5975 97.572 39.3716 94.848 39.7713C92.208 40.1589 91.744 39.9496 92.296 38.6185C93.929 34.6799 93.908 33.2033 92.193 31.308C90.553 29.496 90.538 29.2871 92.046 29.2871C92.972 29.2871 95.773 31.2519 98.273 33.6533C104.377 39.5187 106.591 46.8364 105.611 57.9112C105.23 62.2268 104.953 68.0692 104.996 70.8944C105.117 78.871 104.218 82.5133 101.948 83.2338C100.545 83.6789 99.929 84.7946 99.929 86.8874C99.929 89.3946 100.348 89.9002 102.43 89.9002C107.26 89.9002 109.861 88.0883 112.266 83.049C113.568 80.3192 114.677 76.531 114.73 74.6308C114.81 71.7087 115.895 70.2265 121.76 65.0221C130.126 57.5978 131.572 59.6009 123.751 67.7801C120.124 71.5731 118.472 74.3164 117.546 78.0858C115.977 84.467 112.25 92.0978 110.202 93.1199C109.354 93.543 106.614 94.4941 104.112 95.2335C99.034 96.7339 97.532 98.8105 101.154 99.3239C102.642 99.5348 103.639 100.466 103.833 101.825C104.054 103.373 105.37 104.353 108.456 105.27C114.873 107.174 115.337 107.859 115.354 115.453C115.365 119.752 116.298 125.252 117.89 130.375C119.276 134.837 120.166 138.882 119.868 139.364C118.6 141.416 117.465 139.817 115.425 133.101C114.232 129.174 112.8 125.68 112.243 125.335C111.686 124.99 111.229 121.978 111.229 118.641C111.229 112.39 109.906 110.447 105.647 110.447C102.865 110.447 103.539 117.838 106.58 120.696C110.757 124.62 112.62 130.94 111.801 138.407C110.594 149.408 110.743 150.783 114.089 159.503C116.697 166.297 117.035 167.978 115.794 167.978C114.943 167.978 113.963 167.169 113.616 166.18C113.269 165.192 111.404 160.915 109.471 156.677C105.96 148.976 105.959 148.968 107.162 141.267C108.036 135.678 108.062 132.787 107.255 130.737C105.669 126.705 103.377 127.18 102.525 131.717C101.426 137.577 97.603 142.501 94.494 145.413C90.906 148.773 90.695 151.61 89.513 141.808L88.023 129.453L86.727 141.808C85.704 151.559 85.334 148.773 81.735 145.413C78.62 142.506 74.802 137.577 73.703 131.717C72.852 127.18 70.56 126.705 68.973 130.737C68.167 132.787 68.192 135.678 69.066 141.267C70.27 148.968 70.269 148.976 66.757 156.677C64.825 160.915 62.96 165.192 62.613 166.18C62.266 167.169 61.285 167.978 60.434 167.978C59.194 167.978 59.532 166.297 62.139 159.503L62.139 159.503ZM95.819 90.4622L95.819 86.3045L80.409 86.3045L80.409 90.3705C80.409 93.6741 81.123 95.1676 84.216 98.3349L88.023 102.233L91.921 98.4266C95.165 95.2592 95.819 93.9217 95.819 90.4622L95.819 90.4622Z" id="Shape" fill="#6A5ACD" fill-rule="evenodd" stroke="none" />
    </g>
    <g id="Shape" transform="translate(550 212.82544)">
      <path d="M76.335 3.21526C83.76 -1.07175 92.909 -1.07175 100.335 3.21526L164.669 40.3593C172.095 44.6463 176.669 52.5693 176.669 61.1443L176.669 135.431C176.669 144.005 172.095 151.928 164.669 156.215L100.335 193.359C92.909 197.646 83.76 197.646 76.335 193.359L12 156.215C4.57397 151.928 0 144.005 0 135.431L0 61.1443C0 52.5693 4.57397 44.6463 12 40.3593L76.335 3.21526L76.335 3.21526Z" id="whitehopper" fill="#D9D9D9" fill-rule="evenodd" stroke="none" />
      <path d="M75.249 20.2874C73.781 20.2874 73.881 22.0334 75.497 24.6203C76.671 26.5014 76.264 27.3354 72.075 31.6033C67.51 36.2554 67.375 36.5583 68.984 39.0134C70.526 41.3674 70.45 42.2074 68.046 49.3773C65.323 57.4944 63.403 68.9104 65.258 65.9223C65.815 65.0264 66.584 62.2193 66.969 59.6853C67.354 57.1514 68.691 52.3584 69.936 49.0323L72.199 42.9884L76.449 48.6734C78.789 51.8083 80.495 55.1514 80.244 56.0833C79.993 57.0164 79.483 59.5724 79.113 61.7693C78.66 64.4574 75.959 68.8714 70.861 75.2794C65.372 82.1763 63.469 85.3793 63.947 86.8844C64.309 88.0273 64.986 91.7214 65.451 95.0954C66.141 100.105 65.917 101.973 64.251 105.265C61.818 110.071 61.784 110.468 63.685 110.468C64.491 110.468 65.98 108.624 66.997 106.369C68.499 103.038 68.652 101.092 67.852 95.9924C66.871 89.7334 66.888 89.6954 71.785 82.1653C74.486 78.0114 77.095 74.6163 77.595 74.6163C79.113 74.6163 78.63 76.3463 76.256 79.3634C72.478 84.1664 69.826 98.0603 69.826 112.993C69.826 120.28 69.339 127.888 68.763 129.897C67.986 132.605 68.115 134.307 69.246 136.494C72.315 142.428 74.43 154.394 74.393 165.611C74.373 171.736 74.785 176.747 75.318 176.747C76.473 176.747 77.079 174.121 77.94 165.238C78.452 159.954 77.994 156.578 75.677 148.499C73.531 141.019 73.061 137.9 73.897 136.563C74.576 135.474 74.794 131.072 74.448 125.537C73.997 118.309 74.26 115.61 75.649 112.924C76.622 111.042 77.415 108.39 77.415 107.045C77.415 101.155 79.384 107.64 81.031 118.996C83.498 136.005 85.714 142.8 88.828 142.8C91.941 142.8 94.171 136.005 96.638 118.996C98.285 107.64 100.24 101.155 100.24 107.045C100.24 108.39 101.033 111.042 102.006 112.924C103.395 115.61 103.658 118.309 103.207 125.537C102.862 131.072 103.079 135.474 103.759 136.563C104.594 137.9 104.138 141.019 101.992 148.499C99.675 156.578 99.217 159.954 99.729 165.238C100.59 174.121 101.183 176.747 102.338 176.747C102.87 176.747 103.283 171.736 103.262 165.611C103.225 154.394 105.354 142.428 108.423 136.494C109.554 134.307 109.669 132.605 108.892 129.897C108.316 127.888 107.843 120.28 107.843 112.993C107.843 98.0603 105.191 84.1664 101.413 79.3634C99.039 76.3463 98.543 74.6163 100.06 74.6163C100.56 74.6163 103.183 78.0114 105.884 82.1653C110.781 89.6954 110.798 89.7334 109.817 95.9924C109.017 101.092 109.17 103.038 110.672 106.369C111.689 108.624 113.178 110.468 113.984 110.468C115.885 110.468 115.852 110.071 113.419 105.265C111.752 101.973 111.528 100.105 112.218 95.0954C112.683 91.7214 113.359 88.0273 113.722 86.8844C114.2 85.3793 112.284 82.1763 106.795 75.2794C101.696 68.8714 99.009 64.4574 98.556 61.7693C98.186 59.5714 97.676 57.0164 97.425 56.0833C97.174 55.1514 98.88 51.8083 101.22 48.6734L105.47 42.9884L107.733 49.0323C108.978 52.3584 110.315 57.1514 110.7 59.6853C111.085 62.2193 111.855 65.0264 112.411 65.9223C114.266 68.9104 112.332 57.4944 109.61 49.3773C107.205 42.2074 107.129 41.3674 108.671 39.0134C110.28 36.5583 110.16 36.2554 105.594 31.6033C101.405 27.3354 100.998 26.5014 102.172 24.6203C103.788 22.0334 103.875 20.2874 102.406 20.2874C101.809 20.2874 101.33 20.8064 101.33 21.4464C101.33 22.0874 100.598 23.3374 99.702 24.2343C97.237 26.6983 97.723 29.3324 101.289 32.7484C105.212 36.5063 104.658 38.0784 100.199 35.8533C97.692 34.6033 96.16 34.4893 93.713 35.3434C91.52 36.1073 90.293 36.1073 89.821 35.3434C89.363 34.6013 88.761 34.5813 88.041 35.3013C87.321 36.0213 85.926 36.0224 83.86 35.3013C81.523 34.4874 79.937 34.6234 77.471 35.8533C73.011 38.0784 72.458 36.5074 76.38 32.7484C79.946 29.3333 80.432 26.6994 77.967 24.2343C77.071 23.3383 76.339 22.0874 76.339 21.4464C76.339 20.8064 75.846 20.2874 75.249 20.2874L75.249 20.2874ZM97.011 37.0123C99.945 36.9863 102.743 38.6523 101.592 40.1864C95.455 48.3663 95.893 47.9823 95.893 45.1134C95.893 43.6714 95.165 41.4664 94.278 40.2003C92.778 38.0583 92.85 37.8553 95.383 37.2193C95.911 37.0874 96.467 37.0173 97.011 37.0123L97.011 37.0123ZM80.396 37.0403C81.074 37.0253 81.743 37.0764 82.314 37.2193C84.529 37.7753 84.836 38.2184 83.832 39.4274C83.142 40.2594 82.272 42.3723 81.9 44.1194L81.224 47.2934L78.202 43.0844C75.246 38.9574 75.238 38.8463 77.374 37.7023C78.124 37.3013 79.267 37.0663 80.396 37.0403L80.396 37.0403ZM93.713 57.6434C95.004 57.5694 95.388 58.3743 93.687 59.4514C91.628 60.7534 86.031 60.7534 83.972 59.4514C81.453 57.8584 83.37 57.0144 86.387 58.3884C88.44 59.3233 89.692 59.3183 91.506 58.3474C92.353 57.8943 93.128 57.6763 93.714 57.6434L93.713 57.6434L93.713 57.6434ZM83.998 63.8253C84.877 63.8253 85.584 64.2834 85.585 64.8463C85.585 65.4093 84.878 65.8544 83.998 65.8544C83.118 65.8544 82.411 65.4093 82.411 64.8463C82.411 64.2834 83.118 63.8253 83.998 63.8253L83.998 63.8253ZM93.657 63.8253C94.537 63.8253 95.244 64.2834 95.244 64.8463C95.244 65.4093 94.537 65.8544 93.657 65.8544C92.778 65.8544 92.057 65.4093 92.057 64.8463C92.057 64.2834 92.778 63.8253 93.657 63.8253L93.657 63.8253ZM88.786 68.6414L90.553 86.5674L91.463 101.912L94.168 102.823C96.877 103.726 96.869 104.694 94.168 105.527C92.158 106.299 85.301 106.32 83.335 105.527C80.626 104.624 80.62 103.726 84.232 102.823L86.04 101.912L86.937 86.5674L88.786 68.6414L88.786 68.6414ZM88.827 110.412C90.555 110.412 91.946 111.108 91.946 111.972C91.946 112.836 90.556 113.531 88.827 113.531C87.099 113.531 85.695 112.836 85.695 111.972C85.695 111.108 87.099 110.412 88.827 110.412L88.827 110.412Z" id="Shape" fill="#228B22" fill-rule="evenodd" stroke="none" />
    </g>
    <g id="Shape" transform="translate(550.0166 0.044433594)">
      <path d="M76.335 3.21539C83.76 -1.0718 92.909 -1.0718 100.335 3.21539L164.669 40.359C172.095 44.6462 176.669 52.5692 176.669 61.1436L176.669 135.431C176.669 144.005 172.095 151.928 164.669 156.215L100.335 193.359C92.909 197.646 83.76 197.646 76.335 193.359L12 156.215C4.57397 151.928 0 144.005 0 135.431L0 61.1436C0 52.5692 4.57397 44.6462 12 40.359L76.335 3.21539L76.335 3.21539Z" id="blackhopper" fill="#2F2F2F" fill-rule="evenodd" stroke="none" />
      <path d="M75.249 20.2871C73.781 20.2871 73.881 22.0326 75.497 24.6202C76.671 26.5005 76.264 27.3347 72.075 31.6028C67.51 36.2547 67.375 36.5578 68.984 39.0131C70.526 41.3667 70.45 42.2065 68.046 49.3767C65.323 57.4937 63.403 68.9103 65.258 65.9224C65.815 65.026 66.584 62.2186 66.969 59.6849C67.354 57.1513 68.691 52.3582 69.936 49.0316L72.199 42.9874L76.449 48.6728C78.789 51.8081 80.495 55.151 80.244 56.0832C79.993 57.0155 79.483 59.5714 79.113 61.7687C78.66 64.4565 75.959 68.8712 70.861 75.2785C65.372 82.1761 63.469 85.3791 63.947 86.8839C64.309 88.0267 64.986 91.7205 65.451 95.0947C66.141 100.105 65.917 101.973 64.251 105.265C61.818 110.071 61.784 110.468 63.685 110.468C64.491 110.468 65.98 108.624 66.997 106.369C68.499 103.038 68.652 101.092 67.852 95.9917C66.871 89.7331 66.888 89.6953 71.785 82.1645C74.486 78.0107 77.095 74.6161 77.595 74.6161C79.113 74.6161 78.63 76.346 76.256 79.3632C72.478 84.1661 69.826 98.0603 69.826 112.993C69.826 120.28 69.339 127.888 68.763 129.897C67.986 132.605 68.115 134.307 69.246 136.494C72.315 142.428 74.43 154.394 74.393 165.611C74.373 171.736 74.785 176.747 75.318 176.747C76.473 176.747 77.079 174.121 77.94 165.238C78.452 159.954 77.994 156.578 75.677 148.499C73.531 141.019 73.061 137.9 73.897 136.563C74.576 135.474 74.794 131.072 74.448 125.537C73.997 118.309 74.26 115.61 75.649 112.924C76.622 111.042 77.415 108.39 77.415 107.045C77.415 101.155 79.384 107.64 81.031 118.996C83.498 136.005 85.714 142.8 88.828 142.8C91.941 142.8 94.171 136.005 96.638 118.996C98.285 107.64 100.24 101.155 100.24 107.045C100.24 108.39 101.033 111.042 102.006 112.924C103.395 115.61 103.658 118.309 103.207 125.537C102.862 131.072 103.079 135.474 103.759 136.563C104.594 137.9 104.138 141.019 101.992 148.499C99.675 156.578 99.217 159.954 99.729 165.238C100.59 174.121 101.183 176.747 102.338 176.747C102.87 176.747 103.283 171.736 103.262 165.611C103.225 154.394 105.354 142.428 108.423 136.494C109.554 134.307 109.669 132.605 108.892 129.897C108.316 127.888 107.843 120.28 107.843 112.993C107.843 98.0603 105.191 84.1661 101.413 79.3632C99.039 76.346 98.543 74.6161 100.06 74.6161C100.56 74.6161 103.183 78.0107 105.884 82.1645C110.781 89.6953 110.798 89.7331 109.817 95.9917C109.017 101.092 109.17 103.038 110.672 106.369C111.689 108.624 113.178 110.468 113.984 110.468C115.885 110.468 115.852 110.071 113.419 105.265C111.752 101.973 111.528 100.105 112.218 95.0947C112.683 91.7205 113.359 88.0267 113.722 86.8839C114.2 85.3791 112.284 82.1761 106.795 75.2785C101.696 68.8712 99.009 64.4565 98.556 61.7687C98.186 59.5714 97.676 57.0155 97.425 56.0832C97.174 55.151 98.88 51.8081 101.22 48.6728L105.47 42.9874L107.733 49.0316C108.978 52.3582 110.315 57.1513 110.7 59.6849C111.085 62.2186 111.855 65.0259 112.411 65.9224C114.266 68.9103 112.332 57.4937 109.61 49.3767C107.205 42.2065 107.129 41.3667 108.671 39.0131C110.28 36.5578 110.16 36.2547 105.594 31.6028C101.405 27.3347 100.998 26.5005 102.172 24.6202C103.788 22.0326 103.875 20.2871 102.406 20.2871C101.809 20.2871 101.33 20.806 101.33 21.4462C101.33 22.0865 100.598 23.3373 99.702 24.2338C97.237 26.6983 97.723 29.3323 101.289 32.7481C105.212 36.5064 104.658 38.0776 100.199 35.853C97.692 34.6026 96.16 34.4893 93.713 35.3424C91.52 36.107 90.293 36.1065 89.821 35.3424C89.363 34.6005 88.761 34.5812 88.041 35.3012C87.321 36.0209 85.926 36.0214 83.86 35.3012C81.523 34.4866 79.937 34.6228 77.471 35.8532C73.011 38.0778 72.458 36.5066 76.38 32.7482C79.946 29.3324 80.432 26.6985 77.967 24.2339C77.071 23.3375 76.339 22.0867 76.339 21.4464C76.339 20.8061 75.846 20.2871 75.249 20.2871L75.249 20.2871ZM97.011 37.0122C99.945 36.9861 102.743 38.6516 101.592 40.1861C95.455 48.366 95.893 47.9819 95.893 45.1126C95.893 43.6709 95.165 41.4658 94.278 40.1999C92.778 38.058 92.85 37.8548 95.383 37.2192C95.911 37.0865 96.467 37.017 97.011 37.0122L97.011 37.0122ZM80.396 37.0399C81.074 37.0246 81.743 37.0761 82.314 37.2193C84.529 37.7753 84.836 38.2176 83.832 39.4272C83.142 40.2585 82.272 42.3717 81.9 44.1191L81.224 47.293L78.202 43.0841C75.246 38.9564 75.238 38.8457 77.374 37.7023C78.124 37.3009 79.267 37.0654 80.396 37.0399L80.396 37.0399ZM93.713 57.6427C95.004 57.5688 95.388 58.3736 93.687 59.4504C91.628 60.7525 86.031 60.7525 83.972 59.4504C81.453 57.8575 83.37 57.0136 86.387 58.3879C88.44 59.3234 89.692 59.3177 91.506 58.3466C92.353 57.8936 93.128 57.6764 93.714 57.6428L93.713 57.6427L93.713 57.6427ZM83.998 63.8249C84.877 63.8249 85.584 64.2831 85.585 64.8461C85.585 65.4092 84.878 65.8535 83.998 65.8535C83.118 65.8535 82.411 65.4092 82.411 64.8461C82.411 64.283 83.118 63.8249 83.998 63.8249L83.998 63.8249ZM93.657 63.8249C94.537 63.8249 95.244 64.2831 95.244 64.8461C95.244 65.4092 94.537 65.8535 93.657 65.8535C92.778 65.8535 92.057 65.4092 92.057 64.8461C92.057 64.283 92.778 63.8249 93.657 63.8249L93.657 63.8249ZM88.786 68.641L90.553 86.5667L91.463 101.912L94.168 102.823C96.877 103.726 96.869 104.694 94.168 105.527C92.158 106.299 85.301 106.32 83.335 105.527C80.626 104.624 80.62 103.726 84.232 102.823L86.04 101.912L86.937 86.5667L88.786 68.641L88.786 68.641ZM88.827 110.412C90.555 110.412 91.946 111.108 91.946 111.972C91.946 112.836 90.556 113.531 88.827 113.531C87.099 113.531 85.695 112.836 85.695 111.972C85.695 111.108 87.099 110.412 88.827 110.412L88.827 110.412Z" id="Shape" fill="#228B22" fill-rule="evenodd" stroke="none" />
    </g>
    <g id="Shape" transform="translate(734 212.82544)">
      <path d="M76.335 3.21526C83.76 -1.07175 92.909 -1.07175 100.335 3.21526L164.669 40.3593C172.095 44.6463 176.669 52.5693 176.669 61.1443L176.669 135.431C176.669 144.005 172.095 151.928 164.669 156.215L100.335 193.359C92.909 197.646 83.76 197.646 76.335 193.359L12 156.215C4.57397 151.928 0 144.005 0 135.431L0 61.1443C0 52.5693 4.57397 44.6463 12 40.3593L76.335 3.21526L76.335 3.21526Z" id="whitespider" fill="#D9D9D9" fill-rule="evenodd" stroke="none" />
      <path d="M67.139 165.838C63.863 152.784 64.053 143.141 67.781 133.198L69.945 127.426L71.159 132.799C72.666 139.465 76.684 144.553 83.467 148.386C88.419 151.183 88.846 151.255 92.193 149.857C96.977 147.858 104.049 141.307 105.712 137.334C106.463 135.541 107.115 132.351 107.161 130.244L107.245 126.413L109.844 131.915C112.946 138.484 114.104 152.644 112.247 161.302C111.608 164.281 111.263 166.895 111.481 167.112C111.698 167.329 112.693 165.783 113.693 163.676C116.283 158.219 116.842 142.753 114.797 133.127C113.579 127.39 112.243 124.378 109.031 120.124C104.119 113.618 106.426 114.274 113.566 121.414C118.943 126.792 124.526 137.687 127.089 147.806L128.853 154.774L129.16 150.015C129.544 144.057 126.023 133.591 120.229 123.464C116.389 116.754 115.316 115.683 108.62 111.873C104.562 109.564 100.39 107.629 99.348 107.574C97.608 107.481 97.618 107.419 99.48 106.812C100.594 106.448 104.788 104.329 108.8 102.102C115.384 98.4474 116.49 97.3624 120.157 90.9624C125.916 80.9114 127.458 75.9604 127.888 66.1474C128.23 58.3334 128.165 57.9594 127.19 62.0964C123.434 78.0304 118.357 88.2814 110.749 95.2954C106.923 98.8214 101.157 102.611 99.617 102.611C99.358 102.611 101.631 99.9904 104.668 96.7874C107.704 93.5834 110.8 89.8234 111.548 88.4304C115.856 80.4044 116.392 62.0294 112.714 48.4224C111.358 43.4084 109.684 36.3544 108.993 32.7464C108.301 29.1394 107.554 26.7324 107.332 27.3984C107.11 28.0644 108.101 34.3014 109.534 41.2584C114.711 66.3814 111.677 84.0414 100.351 94.7114L97.447 97.4464L97.787 93.1804C98.04 89.9884 97.577 88.2154 95.944 86.1404C94.744 84.6144 93.268 83.3664 92.666 83.3664C92.062 83.3664 92.324 84.1994 93.246 85.2184C94.168 86.2374 94.922 88.3444 94.922 89.9004C94.922 92.3014 94.691 92.5394 93.402 91.4694C92.154 90.4334 91.883 90.5134 91.883 91.9194C91.883 93.1874 91.163 93.5464 89.098 93.3094C87.531 93.1284 86.423 92.4344 86.566 91.7224C86.705 91.0264 86.363 90.4564 85.806 90.4564C85.249 90.4564 84.793 90.9124 84.793 91.4694C84.793 92.0264 84.337 92.4824 83.78 92.4824C82.305 92.4824 82.54 89.7824 84.313 86.3544C86.429 82.2614 84.285 82.5094 81.691 86.6584C80.296 88.8894 79.79 91.0114 80.123 93.2414C80.77 97.5804 79.569 97.3964 75.746 92.5694C65.37 79.4684 63.549 64.8774 69.088 39.2254C70.4 33.1504 71.29 27.9984 71.067 27.7744C70.573 27.2814 70.666 26.9584 66.437 43.8644C63.556 55.3814 63.035 59.2154 63.133 68.1734C63.202 74.5444 63.857 80.6824 64.765 83.4834C66.41 88.5544 76.25 101.329 78.716 101.594C79.879 101.719 79.919 101.884 78.887 102.296C76.99 103.053 67.523 96.2954 63.545 91.3454C57.485 83.8044 51.368 68.7804 51.368 61.4364C51.368 60.1934 50.84 58.8504 50.193 58.4504C48.222 57.2324 50.013 72.2024 52.737 79.7064C57.063 91.6254 61.157 97.2364 68.784 101.703C72.514 103.886 76.616 106.094 77.9 106.61C79.426 107.222 79.667 107.569 78.596 107.611C77.695 107.646 73.862 109.384 70.08 111.473C62.42 115.704 59.062 119.994 53.631 132.49C49.931 141.004 48.343 146.547 48.335 150.975C48.324 156.442 49.745 154.685 51.614 146.917C54.673 134.199 61.733 122.393 69.651 116.755C71.294 115.584 72.639 114.804 72.639 115.02C72.639 115.235 70.864 117.791 68.694 120.698C65.779 124.605 64.401 127.759 63.411 132.783C61.516 142.407 61.744 155.644 63.918 162.105C65.868 167.901 68.391 170.824 67.139 165.838L67.139 165.838ZM82.378 142.023C79.115 139.457 76.691 135.003 76.691 131.576L76.691 129.042L79.371 131.526C81.667 133.654 83.033 134.01 88.915 134.01C94.823 134.01 96.214 133.644 98.896 131.387C102.513 128.344 102.85 129.535 100.092 135.609C96.404 143.729 88.284 146.669 82.378 142.023L82.378 142.023Z" id="Shape" fill="#A0522D" fill-rule="evenodd" stroke="none" />
    </g>
    <g id="Shape" transform="translate(734.0166 0.044433594)">
      <path d="M76.335 3.21539C83.76 -1.0718 92.909 -1.0718 100.335 3.21539L164.669 40.359C172.09 44.6462 176.67 52.5692 176.67 61.1436L176.67 135.431C176.67 144.005 172.09 151.928 164.669 156.215L100.335 193.359C92.909 197.646 83.76 197.646 76.335 193.359L12 156.215C4.57397 151.928 0 144.005 0 135.431L0 61.1436C0 52.5692 4.57397 44.6462 12 40.359L76.335 3.21539L76.335 3.21539Z" id="blackspider" fill="#2F2F2F" fill-rule="evenodd" stroke="none" />
      <path d="M67.139 165.838C63.863 152.784 64.053 143.141 67.781 133.198L69.945 127.426L71.159 132.799C72.666 139.465 76.684 144.553 83.467 148.386C88.419 151.183 88.846 151.255 92.193 149.857C96.977 147.858 104.049 141.307 105.712 137.334C106.463 135.541 107.115 132.351 107.161 130.244L107.245 126.413L109.844 131.915C112.946 138.484 114.104 152.644 112.247 161.302C111.608 164.281 111.263 166.895 111.481 167.112C111.698 167.329 112.693 165.783 113.693 163.676C116.283 158.219 116.842 142.753 114.797 133.127C113.579 127.39 112.243 124.378 109.031 120.124C104.119 113.618 106.426 114.274 113.566 121.414C118.943 126.792 124.526 137.687 127.089 147.806L128.853 154.774L129.16 150.015C129.544 144.057 126.023 133.591 120.229 123.464C116.389 116.754 115.316 115.683 108.62 111.873C104.562 109.564 100.39 107.629 99.348 107.574C97.608 107.481 97.618 107.419 99.48 106.812C100.594 106.448 104.788 104.329 108.8 102.102C115.384 98.4467 116.49 97.3622 120.157 90.9624C125.916 80.9111 127.458 75.9599 127.888 66.147C128.23 58.3333 128.165 57.9588 127.19 62.0955C123.434 78.03 118.357 88.2813 110.749 95.2949C106.923 98.8211 101.157 102.611 99.617 102.611C99.358 102.611 101.631 99.9896 104.668 96.7864C107.704 93.5832 110.8 89.8229 111.548 88.4302C115.856 80.4044 116.392 62.0285 112.714 48.4216C111.358 43.4079 109.684 36.354 108.993 32.7462C108.301 29.1385 107.554 26.7317 107.332 27.3979C107.11 28.0641 108.101 34.3013 109.534 41.2584C114.711 66.3805 111.677 84.0405 100.351 94.7108L97.447 97.4463L97.787 93.18C98.04 89.9882 97.577 88.2152 95.944 86.1398C94.744 84.6141 93.268 83.3658 92.666 83.3658C92.062 83.3658 92.324 84.1994 93.246 85.2181C94.168 86.2369 94.922 88.3438 94.922 89.9001C94.922 92.3005 94.691 92.5385 93.402 91.4688C92.154 90.4327 91.883 90.5128 91.883 91.9185C91.883 93.1871 91.163 93.5463 89.098 93.3086C87.531 93.1284 86.423 92.4341 86.566 91.722C86.705 91.0257 86.363 90.456 85.806 90.456C85.249 90.456 84.793 90.9117 84.793 91.4688C84.793 92.0259 84.337 92.4817 83.78 92.4817C82.305 92.4817 82.54 89.7823 84.313 86.3542C86.429 82.2612 84.285 82.5093 81.691 86.6577C80.296 88.8886 79.79 91.0104 80.123 93.2413C80.77 97.5803 79.569 97.3957 75.746 92.5687C65.37 79.4682 63.549 64.8773 69.088 39.2249C70.4 33.1503 71.29 27.9974 71.067 27.774C70.573 27.2807 70.666 26.9579 66.437 43.8637C63.556 55.3808 63.035 59.215 63.133 68.1727C63.202 74.5441 63.857 80.6823 64.765 83.4833C66.41 88.5542 76.25 101.329 78.716 101.594C79.879 101.719 79.919 101.884 78.887 102.296C76.99 103.053 67.523 96.2954 63.545 91.3451C57.485 83.8039 51.368 68.7802 51.368 61.436C51.368 60.1932 50.84 58.8496 50.193 58.4502C48.222 57.2317 50.013 72.202 52.737 79.7058C57.063 91.6254 61.157 97.2364 68.784 101.703C72.514 103.886 76.616 106.094 77.9 106.61C79.426 107.222 79.667 107.569 78.596 107.611C77.695 107.646 73.862 109.384 70.08 111.473C62.42 115.704 59.062 119.994 53.631 132.49C49.931 141.004 48.343 146.547 48.335 150.975C48.324 156.442 49.745 154.685 51.614 146.917C54.673 134.199 61.733 122.393 69.651 116.755C71.294 115.584 72.639 114.804 72.639 115.02C72.639 115.235 70.864 117.791 68.694 120.698C65.779 124.605 64.401 127.759 63.411 132.783C61.516 142.407 61.744 155.644 63.918 162.105C65.868 167.901 68.391 170.824 67.139 165.838L67.139 165.838ZM82.378 142.023C79.115 139.457 76.691 135.003 76.691 131.576L76.691 129.042L79.371 131.526C81.667 133.654 83.033 134.01 88.915 134.01C94.823 134.01 96.214 133.644 98.896 131.387C102.513 128.344 102.85 129.535 100.092 135.609C96.404 143.729 88.284 146.669 82.378 142.023L82.378 142.023Z" id="Shape" fill="#A0522D" fill-rule="evenodd" stroke="none" />
    </g>
    <g id="Shape" transform="translate(367 212.82544)">
      <path d="M76.335 3.21526C83.76 -1.07175 92.909 -1.07175 100.335 3.21526L164.669 40.3593C172.095 44.6463 176.669 52.5693 176.669 61.1443L176.669 135.431C176.669 144.005 172.095 151.928 164.669 156.215L100.335 193.359C92.909 197.646 83.76 197.646 76.335 193.359L12 156.215C4.57401 151.928 0 144.005 0 135.431L0 61.1443C0 52.5693 4.57401 44.6463 12 40.3593L76.335 3.21526L76.335 3.21526Z" id="whitebee" fill="#D9D9D9" fill-rule="evenodd" stroke="none" />
      <path d="M84.316 138.571C79.241 136.071 76.312 130.672 74.037 119.629L73.482 116.931L70.852 120.079C65.023 127.056 58.106 133.617 56.975 133.24C54.668 132.471 55.073 130.645 57.873 129.197C60.717 127.727 70.441 114.425 74.439 106.534L76.565 102.341L74.327 103.034C69.484 104.532 64.721 107.527 63.948 109.561C62.757 112.695 53.645 120.878 51.347 120.878C48.416 120.878 48.948 119.386 52.658 117.197C54.466 116.13 57.672 112.716 59.783 109.609C63.035 104.825 64.673 103.454 70.496 100.641C74.277 98.8153 77.193 97.1443 76.976 96.9273C76.759 96.7103 72.816 98.1493 68.215 100.126C61.108 103.178 59.18 103.628 55.413 103.111C50.889 102.491 42.551 97.8573 40.378 94.7553C39.716 93.8103 37.434 92.5683 35.307 91.9953C30.763 90.7723 24.997 85.2563 22.834 80.0623L21.335 76.4633L24.478 74.7493C29.397 72.0683 41.47 72.5303 48.889 75.6843C52.079 77.0403 58.604 79.3393 63.389 80.7923C68.174 82.2453 72.741 83.6603 73.539 83.9363C74.336 84.2133 72.27 81.9443 68.947 78.8943C64.871 75.1533 62.905 72.6213 62.905 71.1103C62.905 69.8413 61.441 67.4073 59.522 65.4883C55.113 61.0793 55.187 59.3913 59.657 62.4243C61.592 63.7373 63.715 64.8123 64.375 64.8123C65.036 64.8123 66.065 66.7553 66.663 69.1313C67.491 72.4173 68.613 74.0363 71.353 75.8973C76.617 79.4753 78.364 79.1803 78.101 74.7613C77.92 71.7103 78.284 70.9843 80.547 69.8753C82.009 69.1593 83.204 68.2703 83.203 67.9003C83.203 67.5313 79.973 64.8363 76.027 61.9123C72.082 58.9873 69.222 56.4613 69.673 56.2973C70.124 56.1333 73.568 58.0443 77.327 60.5433C86.737 66.8013 90.306 66.8013 99.717 60.5433C103.476 58.0443 106.92 56.1333 107.371 56.2973C107.821 56.4613 104.962 58.9873 101.016 61.9123C97.071 64.8363 93.842 67.5313 93.84 67.9003C93.84 68.2703 95.035 69.1593 96.497 69.8753C98.76 70.9843 99.1229 71.7103 98.942 74.7613C98.68 79.1803 100.427 79.4753 105.691 75.8973C108.431 74.0363 109.553 72.4173 110.38 69.1313C110.978 66.7553 112.008 64.8123 112.668 64.8123C113.328 64.8123 115.452 63.7373 117.387 62.4243C121.856 59.3913 121.931 61.0793 117.522 65.4883C115.603 67.4073 114.138 69.8413 114.138 71.1103C114.138 72.6213 112.173 75.1533 108.097 78.8943C104.774 81.9443 102.708 84.2133 103.505 83.9363C104.303 83.6603 108.87 82.2453 113.655 80.7923C118.44 79.3393 124.965 77.0403 128.155 75.6843C135.574 72.5303 147.647 72.0683 152.565 74.7493L155.709 76.4633L154.21 80.0623C152.046 85.2563 146.281 90.7723 141.737 91.9953C139.61 92.5683 137.328 93.8103 136.666 94.7553C134.493 97.8573 126.155 102.491 121.63 103.111C117.864 103.628 115.935 103.178 108.829 100.126C104.227 98.1493 100.285 96.7103 100.068 96.9273C99.851 97.1443 102.766 98.8153 106.547 100.641C112.37 103.454 114.009 104.825 117.26 109.609C119.372 112.716 122.578 116.13 124.385 117.197C128.096 119.386 128.627 120.878 125.697 120.878C123.399 120.878 114.287 112.695 113.095 109.561C112.322 107.527 107.56 104.532 102.717 103.034L100.479 102.341L102.604 106.534C106.603 114.425 116.326 127.727 119.171 129.197C121.971 130.645 122.376 132.471 120.068 133.24C118.938 133.617 112.021 127.056 106.192 120.079L103.562 116.931L103.006 119.629C100.708 130.787 97.761 136.147 92.57 138.61C88.462 140.56 88.351 140.559 84.316 138.571L84.316 138.571ZM94.596 131.936C96.921 130.307 99.01 126.722 99.968 122.714C100.566 120.215 100.549 120.219 97.176 123.4C95.31 125.161 92.315 126.876 90.521 127.213C86.571 127.954 81.148 125.637 78.27 121.979L76.288 119.46L76.983 122.344C78.822 129.986 82.417 133.445 88.522 133.445C90.678 133.445 93.411 132.766 94.596 131.936L94.596 131.936ZM97.186 117.05C98.15 115.986 99.069 113.128 99.286 110.526C99.609 106.661 99.493 106.236 98.59 107.959C97.139 110.728 93.678 112.178 88.522 112.178C83.365 112.178 79.904 110.728 78.453 107.959C77.55 106.236 77.435 106.661 77.757 110.526C78.341 117.532 80.148 118.945 88.522 118.945C94.197 118.945 95.787 118.597 97.186 117.05L97.186 117.05ZM84.507 86.7883C88.065 85.8383 93.264 86.4903 97.958 88.4743C100.737 89.6483 99.026 86.7043 95.834 84.8193C92.255 82.7043 84.789 82.7043 81.21 84.8193C78.012 86.7073 76.317 89.6353 79.086 88.4873C80.022 88.0993 82.462 87.3343 84.507 86.7883L84.507 86.7883Z" id="Shape" fill="#DAA520" fill-rule="evenodd" stroke="none" />
    </g>
    <g id="Shape" transform="translate(367.0166 0.044433594)">
      <path d="M76.335 3.21539C83.76 -1.0718 92.909 -1.0718 100.335 3.21539L164.669 40.359C172.095 44.6462 176.669 52.5692 176.669 61.1436L176.669 135.431C176.669 144.005 172.095 151.928 164.669 156.215L100.335 193.359C92.909 197.646 83.76 197.646 76.335 193.359L12 156.215C4.57401 151.928 0 144.005 0 135.431L0 61.1436C0 52.5692 4.57401 44.6462 12 40.359L76.335 3.21539L76.335 3.21539Z" id="blackbee" fill="#2F2F2F" fill-rule="evenodd" stroke="none" />
      <path d="M84.3159 138.571C79.241 136.071 76.312 130.672 74.037 119.629L73.482 116.931L70.852 120.079C65.023 127.056 58.106 133.617 56.9749 133.24C54.668 132.471 55.073 130.645 57.873 129.197C60.7169 127.727 70.4409 114.425 74.439 106.534L76.565 102.341L74.327 103.034C69.484 104.532 64.721 107.527 63.948 109.561C62.757 112.695 53.645 120.878 51.347 120.878C48.416 120.878 48.948 119.386 52.658 117.197C54.466 116.13 57.672 112.716 59.783 109.609C63.0349 104.825 64.6729 103.454 70.4959 100.641C74.2769 98.8152 77.193 97.1435 76.976 96.9265C76.7589 96.7094 72.8159 98.1489 68.215 100.126C61.1079 103.178 59.18 103.628 55.413 103.111C50.8889 102.491 42.551 97.857 40.378 94.7547C39.716 93.8097 37.434 92.5678 35.307 91.995C30.763 90.7715 24.997 85.2556 22.834 80.0623L21.335 76.4632L24.478 74.7494C29.397 72.0679 41.47 72.5302 48.889 75.6841C52.0789 77.0403 58.604 79.3387 63.3889 80.7917C68.174 82.2447 72.741 83.6598 73.539 83.9363C74.336 84.2128 72.27 81.9439 68.947 78.8941C64.8709 75.1532 62.905 72.6207 62.905 71.1103C62.905 69.8404 61.4409 67.407 59.5219 65.4881C55.1129 61.079 55.187 59.3907 59.6569 62.4239C61.5919 63.737 63.715 64.8114 64.375 64.8114C65.036 64.8114 66.065 66.7551 66.663 69.1308C67.491 72.4169 68.6129 74.0355 71.353 75.8974C76.617 79.4745 78.364 79.1804 78.101 74.7612C77.92 71.7102 78.284 70.9841 80.547 69.8751C82.0089 69.1587 83.2039 68.27 83.203 67.9003C83.203 67.5306 79.973 64.8356 76.0269 61.9114C72.0819 58.9873 69.222 56.4607 69.6729 56.2969C70.124 56.133 73.568 58.0439 77.327 60.5433C86.737 66.8008 90.306 66.8008 99.7169 60.5433C103.476 58.0439 106.92 56.133 107.371 56.2969C107.821 56.4607 104.962 58.9873 101.016 61.9114C97.071 64.8356 93.8419 67.5306 93.84 67.9003C93.84 68.27 95.0349 69.1587 96.497 69.8751C98.76 70.9841 99.1229 71.7102 98.942 74.7612C98.68 79.1804 100.427 79.4745 105.691 75.8974C108.431 74.0355 109.553 72.4169 110.38 69.1308C110.978 66.7551 112.008 64.8114 112.668 64.8114C113.328 64.8114 115.452 63.737 117.387 62.4239C121.856 59.3907 121.931 61.079 117.522 65.4881C115.603 67.407 114.138 69.8404 114.138 71.1103C114.138 72.6207 112.173 75.1532 108.097 78.8941C104.774 81.9439 102.708 84.2128 103.505 83.9363C104.303 83.6598 108.87 82.2447 113.655 80.7917C118.44 79.3387 124.965 77.0403 128.155 75.6841C135.574 72.5302 147.647 72.0679 152.565 74.7494L155.709 76.4632L154.21 80.0623C152.046 85.2556 146.281 90.7715 141.737 91.995C139.61 92.5678 137.328 93.8097 136.666 94.7547C134.493 97.857 126.155 102.491 121.63 103.111C117.864 103.628 115.935 103.178 108.829 100.126C104.227 98.1489 100.285 96.7094 100.068 96.9265C99.851 97.1435 102.766 98.8152 106.547 100.641C112.37 103.454 114.009 104.825 117.26 109.609C119.372 112.716 122.578 116.13 124.385 117.197C128.096 119.386 128.627 120.878 125.697 120.878C123.399 120.878 114.287 112.695 113.095 109.561C112.322 107.527 107.56 104.532 102.717 103.034L100.479 102.341L102.604 106.534C106.603 114.425 116.326 127.727 119.171 129.197C121.971 130.645 122.376 132.471 120.068 133.24C118.938 133.617 112.021 127.056 106.192 120.079L103.562 116.931L103.006 119.629C100.708 130.787 97.761 136.147 92.57 138.61C88.4619 140.56 88.351 140.559 84.3159 138.571L84.3159 138.571ZM94.596 131.936C96.921 130.307 99.01 126.722 99.968 122.714C100.566 120.215 100.549 120.219 97.176 123.4C95.31 125.161 92.315 126.876 90.521 127.213C86.571 127.954 81.148 125.637 78.27 121.979L76.288 119.46L76.9829 122.344C78.822 129.986 82.417 133.445 88.5219 133.445C90.6779 133.445 93.411 132.766 94.596 131.936L94.596 131.936ZM97.1859 117.05C98.15 115.986 99.0689 113.128 99.286 110.526C99.609 106.661 99.493 106.236 98.59 107.959C97.1389 110.728 93.6779 112.178 88.5219 112.178C83.365 112.178 79.904 110.728 78.453 107.959C77.55 106.236 77.435 106.661 77.757 110.526C78.341 117.532 80.148 118.945 88.5219 118.945C94.197 118.945 95.787 118.597 97.1859 117.05L97.1859 117.05ZM84.507 86.7881C88.065 85.8383 93.2639 86.4899 97.958 88.4736C100.737 89.6482 99.026 86.7043 95.834 84.8185C92.255 82.7043 84.789 82.7043 81.21 84.8185C78.012 86.7072 76.317 89.6354 79.086 88.4871C80.0219 88.0987 82.4619 87.3342 84.507 86.7881L84.507 86.7881Z" id="Shape" fill="#DAA520" fill-rule="evenodd" stroke="none" />
    </g>
  </g>
</svg>